<mxfile host="app.diagrams.net" modified="2022-01-02T02:51:09.510Z" agent="5.0 (Windows NT 6.1; Win64; x64) AppleWebKit/537.36 (KHTML, like Gecko) Chrome/96.0.4664.110 Safari/537.36" etag="zwo6KLxzDfS_NHefZnMx" version="16.1.2" type="github">
  <diagram id="U_FiWX3RE7ErRrTLwyXM" name="第 1 页">
    <mxGraphModel dx="1422" dy="762" grid="1" gridSize="10" guides="1" tooltips="1" connect="1" arrows="1" fold="1" page="1" pageScale="1" pageWidth="827" pageHeight="1169" background="#ffffff" math="0" shadow="0">
      <root>
        <mxCell id="0" />
        <mxCell id="1" parent="0" />
        <mxCell id="Ciyv3eJ4Lc2KG37AQOT6-1" style="edgeStyle=orthogonalEdgeStyle;rounded=0;orthogonalLoop=1;jettySize=auto;html=1;exitX=0.5;exitY=1;exitDx=0;exitDy=0;entryX=0.5;entryY=0;entryDx=0;entryDy=0;curved=1;" edge="1" parent="1" source="Ciyv3eJ4Lc2KG37AQOT6-2" target="Ciyv3eJ4Lc2KG37AQOT6-19">
          <mxGeometry relative="1" as="geometry">
            <mxPoint x="295" y="270" as="sourcePoint" />
          </mxGeometry>
        </mxCell>
        <mxCell id="Ciyv3eJ4Lc2KG37AQOT6-2" value="" style="ellipse;whiteSpace=wrap;html=1;aspect=fixed;shadow=1;fillColor=#dae8fc;strokeColor=#6c8ebf;" vertex="1" parent="1">
          <mxGeometry x="305" y="200" width="40" height="40" as="geometry" />
        </mxCell>
        <mxCell id="Ciyv3eJ4Lc2KG37AQOT6-35" style="edgeStyle=orthogonalEdgeStyle;rounded=0;orthogonalLoop=1;jettySize=auto;html=1;exitX=0.5;exitY=1;exitDx=0;exitDy=0;entryX=0.5;entryY=0;entryDx=0;entryDy=0;fontFamily=Comic Sans MS;fontSize=13;" edge="1" parent="1" source="Ciyv3eJ4Lc2KG37AQOT6-3" target="Ciyv3eJ4Lc2KG37AQOT6-33">
          <mxGeometry relative="1" as="geometry" />
        </mxCell>
        <mxCell id="Ciyv3eJ4Lc2KG37AQOT6-3" value="" style="ellipse;whiteSpace=wrap;html=1;aspect=fixed;shadow=1;fillColor=#d5e8d4;strokeColor=#82b366;" vertex="1" parent="1">
          <mxGeometry x="625" y="200" width="40" height="40" as="geometry" />
        </mxCell>
        <mxCell id="Ciyv3eJ4Lc2KG37AQOT6-4" value="&lt;div class=&quot;okr-block-clipboard&quot;&gt;&lt;/div&gt;&lt;div&gt;dp[i-1][0]&lt;/div&gt;" style="text;html=1;strokeColor=none;fillColor=none;align=center;verticalAlign=middle;whiteSpace=wrap;rounded=0;shadow=1;fontFamily=Comic Sans MS;" vertex="1" parent="1">
          <mxGeometry x="265" y="160" width="120" height="40" as="geometry" />
        </mxCell>
        <mxCell id="Ciyv3eJ4Lc2KG37AQOT6-5" value="&lt;div class=&quot;okr-block-clipboard&quot;&gt;&lt;/div&gt;&lt;font style=&quot;font-size: 15px&quot;&gt;&lt;font style=&quot;font-size: 15px&quot;&gt;dp[i][0]:表示第i天&lt;b&gt;持有股票&lt;/b&gt;时累计最大收益。&lt;br&gt;dp[i][1]:表示第i天出售了股票，第i天结束时&lt;b&gt;不持有股票并且处于冷冻期&lt;/b&gt;时累计最大收益&lt;br&gt;dp[i][2]:表示第i天结束时&lt;b&gt;不持有股票且第i+1天可以购买股票(不在冷冻期)&lt;/b&gt;&lt;/font&gt;&lt;font style=&quot;font-size: 15px&quot;&gt;时累计最大收益&lt;/font&gt;&lt;/font&gt;。&lt;br&gt;&lt;div class=&quot;okr-block-clipboard&quot;&gt;&lt;/div&gt;" style="text;html=1;strokeColor=none;fillColor=none;align=center;verticalAlign=middle;whiteSpace=wrap;rounded=0;shadow=1;fontFamily=Comic Sans MS;" vertex="1" parent="1">
          <mxGeometry x="170" y="80" width="610" height="60" as="geometry" />
        </mxCell>
        <mxCell id="Ciyv3eJ4Lc2KG37AQOT6-6" style="edgeStyle=orthogonalEdgeStyle;curved=1;rounded=0;orthogonalLoop=1;jettySize=auto;html=1;exitX=0.5;exitY=1;exitDx=0;exitDy=0;fontFamily=Comic Sans MS;" edge="1" parent="1" source="Ciyv3eJ4Lc2KG37AQOT6-8" target="Ciyv3eJ4Lc2KG37AQOT6-12">
          <mxGeometry relative="1" as="geometry" />
        </mxCell>
        <mxCell id="Ciyv3eJ4Lc2KG37AQOT6-36" style="edgeStyle=orthogonalEdgeStyle;rounded=0;orthogonalLoop=1;jettySize=auto;html=1;exitX=1;exitY=0.5;exitDx=0;exitDy=0;entryX=0.5;entryY=0;entryDx=0;entryDy=0;fontFamily=Comic Sans MS;fontSize=13;curved=1;" edge="1" parent="1" source="Ciyv3eJ4Lc2KG37AQOT6-8" target="Ciyv3eJ4Lc2KG37AQOT6-33">
          <mxGeometry relative="1" as="geometry" />
        </mxCell>
        <mxCell id="Ciyv3eJ4Lc2KG37AQOT6-8" value="" style="ellipse;whiteSpace=wrap;html=1;aspect=fixed;shadow=1;fillColor=#f8cecc;strokeColor=#b85450;" vertex="1" parent="1">
          <mxGeometry x="465" y="200" width="40" height="40" as="geometry" />
        </mxCell>
        <mxCell id="Ciyv3eJ4Lc2KG37AQOT6-32" style="edgeStyle=orthogonalEdgeStyle;rounded=0;orthogonalLoop=1;jettySize=auto;html=1;exitX=0.5;exitY=1;exitDx=0;exitDy=0;entryX=0.5;entryY=0;entryDx=0;entryDy=0;fontFamily=Comic Sans MS;fontSize=13;" edge="1" parent="1" source="Ciyv3eJ4Lc2KG37AQOT6-12" target="Ciyv3eJ4Lc2KG37AQOT6-22">
          <mxGeometry relative="1" as="geometry" />
        </mxCell>
        <mxCell id="Ciyv3eJ4Lc2KG37AQOT6-12" value="MAX" style="text;html=1;strokeColor=none;fillColor=none;align=center;verticalAlign=middle;whiteSpace=wrap;rounded=0;shadow=1;fontFamily=Comic Sans MS;fontSize=15;" vertex="1" parent="1">
          <mxGeometry x="455" y="320" width="60" height="30" as="geometry" />
        </mxCell>
        <mxCell id="Ciyv3eJ4Lc2KG37AQOT6-13" value="" style="rounded=0;orthogonalLoop=1;jettySize=auto;html=1;exitX=1;exitY=0.5;exitDx=0;exitDy=0;entryX=0.5;entryY=0;entryDx=0;entryDy=0;edgeStyle=orthogonalEdgeStyle;curved=1;endArrow=none;" edge="1" parent="1" source="Ciyv3eJ4Lc2KG37AQOT6-2" target="Ciyv3eJ4Lc2KG37AQOT6-12">
          <mxGeometry relative="1" as="geometry">
            <mxPoint x="345" y="220" as="sourcePoint" />
            <mxPoint x="405" y="360" as="targetPoint" />
          </mxGeometry>
        </mxCell>
        <mxCell id="Ciyv3eJ4Lc2KG37AQOT6-14" value="&lt;div class=&quot;okr-block-clipboard&quot;&gt;&lt;/div&gt;&lt;div&gt;dp[i-1][2]&lt;/div&gt;" style="text;html=1;strokeColor=none;fillColor=none;align=center;verticalAlign=middle;whiteSpace=wrap;rounded=0;shadow=1;fontFamily=Comic Sans MS;" vertex="1" parent="1">
          <mxGeometry x="445" y="160" width="80" height="40" as="geometry" />
        </mxCell>
        <mxCell id="Ciyv3eJ4Lc2KG37AQOT6-15" value="&lt;font style=&quot;font-size: 15px&quot;&gt;&lt;span&gt;+prices[i]&lt;/span&gt;&lt;/font&gt;&lt;div class=&quot;okr-block-clipboard&quot;&gt;&lt;/div&gt;" style="text;html=1;strokeColor=none;fillColor=none;align=center;verticalAlign=middle;whiteSpace=wrap;rounded=0;shadow=1;fontFamily=Comic Sans MS;" vertex="1" parent="1">
          <mxGeometry x="245" y="240" width="80" height="30" as="geometry" />
        </mxCell>
        <mxCell id="Ciyv3eJ4Lc2KG37AQOT6-29" style="edgeStyle=orthogonalEdgeStyle;rounded=0;orthogonalLoop=1;jettySize=auto;html=1;exitX=0.5;exitY=1;exitDx=0;exitDy=0;entryX=0.5;entryY=0;entryDx=0;entryDy=0;fontFamily=Comic Sans MS;fontSize=13;" edge="1" parent="1" source="Ciyv3eJ4Lc2KG37AQOT6-19" target="Ciyv3eJ4Lc2KG37AQOT6-24">
          <mxGeometry relative="1" as="geometry" />
        </mxCell>
        <mxCell id="Ciyv3eJ4Lc2KG37AQOT6-19" value="MAX" style="text;html=1;strokeColor=none;fillColor=none;align=center;verticalAlign=middle;whiteSpace=wrap;rounded=0;shadow=1;fontFamily=Comic Sans MS;fontSize=15;" vertex="1" parent="1">
          <mxGeometry x="295" y="320" width="60" height="30" as="geometry" />
        </mxCell>
        <mxCell id="Ciyv3eJ4Lc2KG37AQOT6-20" value="&lt;font style=&quot;font-size: 12px&quot;&gt;&lt;font face=&quot;Comic Sans MS&quot;&gt;&lt;font style=&quot;font-size: 12px&quot;&gt;&lt;b&gt;线索1&lt;/b&gt;：可以&lt;span style=&quot;color: rgb(33 , 40 , 53) ; background-color: rgb(255 , 255 , 255)&quot;&gt;多次买卖一支股票&lt;/span&gt;&lt;b&gt;&lt;br&gt;线索2&lt;/b&gt;：&lt;/font&gt;&lt;span style=&quot;color: rgb(33 , 40 , 53) ; background-color: rgb(255 , 255 , 255)&quot;&gt;你不能同时参与多笔交易&lt;br&gt;&lt;b&gt;线索3&lt;/b&gt;：&lt;/span&gt;&lt;/font&gt;&lt;span style=&quot;text-align: left&quot;&gt;卖出股票后，你无法在第二天买入股票 (即&lt;/span&gt;&lt;b style=&quot;text-align: left&quot;&gt;冷冻期&lt;/b&gt;&lt;span style=&quot;text-align: left&quot;&gt;为 1 天)&lt;/span&gt;&lt;font face=&quot;Comic Sans MS&quot;&gt;&lt;span style=&quot;color: rgb(33 , 40 , 53) ; background-color: rgb(255 , 255 , 255)&quot;&gt;&lt;br&gt;&lt;/span&gt;&lt;/font&gt;&lt;/font&gt;" style="text;html=1;strokeColor=none;fillColor=none;align=center;verticalAlign=middle;whiteSpace=wrap;rounded=0;" vertex="1" parent="1">
          <mxGeometry x="290" y="20" width="400" height="60" as="geometry" />
        </mxCell>
        <mxCell id="Ciyv3eJ4Lc2KG37AQOT6-21" value="&lt;div class=&quot;okr-block-clipboard&quot;&gt;&lt;/div&gt;&lt;div&gt;dp[i-1][1]&lt;/div&gt;" style="text;html=1;strokeColor=none;fillColor=none;align=center;verticalAlign=middle;whiteSpace=wrap;rounded=0;shadow=1;fontFamily=Comic Sans MS;" vertex="1" parent="1">
          <mxGeometry x="605" y="160" width="80" height="40" as="geometry" />
        </mxCell>
        <mxCell id="Ciyv3eJ4Lc2KG37AQOT6-22" value="" style="ellipse;whiteSpace=wrap;html=1;aspect=fixed;shadow=1;fillColor=#dae8fc;strokeColor=#6c8ebf;" vertex="1" parent="1">
          <mxGeometry x="465" y="380" width="40" height="40" as="geometry" />
        </mxCell>
        <mxCell id="Ciyv3eJ4Lc2KG37AQOT6-23" value="&lt;div class=&quot;okr-block-clipboard&quot;&gt;&lt;/div&gt;&lt;div&gt;dp[i][0]&lt;/div&gt;" style="text;html=1;strokeColor=none;fillColor=none;align=center;verticalAlign=middle;whiteSpace=wrap;rounded=0;shadow=1;fontFamily=Comic Sans MS;" vertex="1" parent="1">
          <mxGeometry x="425" y="420" width="120" height="40" as="geometry" />
        </mxCell>
        <mxCell id="Ciyv3eJ4Lc2KG37AQOT6-24" value="" style="ellipse;whiteSpace=wrap;html=1;aspect=fixed;shadow=1;fillColor=#d5e8d4;strokeColor=#82b366;" vertex="1" parent="1">
          <mxGeometry x="305" y="380" width="40" height="40" as="geometry" />
        </mxCell>
        <mxCell id="Ciyv3eJ4Lc2KG37AQOT6-25" value="&lt;div class=&quot;okr-block-clipboard&quot;&gt;&lt;/div&gt;&lt;div&gt;dp[i][1]&lt;/div&gt;" style="text;html=1;strokeColor=none;fillColor=none;align=center;verticalAlign=middle;whiteSpace=wrap;rounded=0;shadow=1;fontFamily=Comic Sans MS;" vertex="1" parent="1">
          <mxGeometry x="265" y="420" width="120" height="40" as="geometry" />
        </mxCell>
        <mxCell id="Ciyv3eJ4Lc2KG37AQOT6-26" value="" style="ellipse;whiteSpace=wrap;html=1;aspect=fixed;shadow=1;fillColor=#f8cecc;strokeColor=#b85450;" vertex="1" parent="1">
          <mxGeometry x="625" y="380" width="40" height="40" as="geometry" />
        </mxCell>
        <mxCell id="Ciyv3eJ4Lc2KG37AQOT6-27" value="&lt;div class=&quot;okr-block-clipboard&quot;&gt;&lt;/div&gt;&lt;div&gt;dp[i][2]&lt;/div&gt;" style="text;html=1;strokeColor=none;fillColor=none;align=center;verticalAlign=middle;whiteSpace=wrap;rounded=0;shadow=1;fontFamily=Comic Sans MS;" vertex="1" parent="1">
          <mxGeometry x="605" y="420" width="80" height="40" as="geometry" />
        </mxCell>
        <mxCell id="Ciyv3eJ4Lc2KG37AQOT6-28" value="&lt;font style=&quot;font-size: 13px&quot;&gt;出售股票&lt;/font&gt;&lt;br&gt;&lt;div class=&quot;okr-block-clipboard&quot;&gt;&lt;/div&gt;" style="text;html=1;strokeColor=none;fillColor=none;align=center;verticalAlign=middle;whiteSpace=wrap;rounded=0;shadow=1;fontFamily=Comic Sans MS;" vertex="1" parent="1">
          <mxGeometry x="245" y="270" width="80" height="30" as="geometry" />
        </mxCell>
        <mxCell id="Ciyv3eJ4Lc2KG37AQOT6-30" value="&lt;font style=&quot;font-size: 15px&quot;&gt;&lt;span&gt;-prices[i]&lt;/span&gt;&lt;/font&gt;&lt;div class=&quot;okr-block-clipboard&quot;&gt;&lt;/div&gt;" style="text;html=1;strokeColor=none;fillColor=none;align=center;verticalAlign=middle;whiteSpace=wrap;rounded=0;shadow=1;fontFamily=Comic Sans MS;" vertex="1" parent="1">
          <mxGeometry x="485" y="240" width="80" height="30" as="geometry" />
        </mxCell>
        <mxCell id="Ciyv3eJ4Lc2KG37AQOT6-31" value="&lt;font style=&quot;font-size: 13px&quot;&gt;购买股票&lt;/font&gt;&lt;br&gt;&lt;div class=&quot;okr-block-clipboard&quot;&gt;&lt;/div&gt;" style="text;html=1;strokeColor=none;fillColor=none;align=center;verticalAlign=middle;whiteSpace=wrap;rounded=0;shadow=1;fontFamily=Comic Sans MS;" vertex="1" parent="1">
          <mxGeometry x="485" y="270" width="80" height="30" as="geometry" />
        </mxCell>
        <mxCell id="Ciyv3eJ4Lc2KG37AQOT6-34" style="edgeStyle=orthogonalEdgeStyle;rounded=0;orthogonalLoop=1;jettySize=auto;html=1;exitX=0.5;exitY=1;exitDx=0;exitDy=0;entryX=0.5;entryY=0;entryDx=0;entryDy=0;fontFamily=Comic Sans MS;fontSize=13;" edge="1" parent="1" source="Ciyv3eJ4Lc2KG37AQOT6-33" target="Ciyv3eJ4Lc2KG37AQOT6-26">
          <mxGeometry relative="1" as="geometry" />
        </mxCell>
        <mxCell id="Ciyv3eJ4Lc2KG37AQOT6-33" value="MAX" style="text;html=1;strokeColor=none;fillColor=none;align=center;verticalAlign=middle;whiteSpace=wrap;rounded=0;shadow=1;fontFamily=Comic Sans MS;fontSize=15;" vertex="1" parent="1">
          <mxGeometry x="615" y="320" width="60" height="30" as="geometry" />
        </mxCell>
        <mxCell id="Ciyv3eJ4Lc2KG37AQOT6-37" value="&lt;span style=&quot;font-size: 13px&quot;&gt;直接继承&lt;br&gt;无股票操作&lt;/span&gt;&lt;br&gt;&lt;div class=&quot;okr-block-clipboard&quot;&gt;&lt;/div&gt;" style="text;html=1;strokeColor=none;fillColor=none;align=center;verticalAlign=middle;whiteSpace=wrap;rounded=0;shadow=1;fontFamily=Comic Sans MS;" vertex="1" parent="1">
          <mxGeometry x="645" y="250" width="80" height="30" as="geometry" />
        </mxCell>
      </root>
    </mxGraphModel>
  </diagram>
</mxfile>
